<?xml version="1.0" encoding="UTF-8"?>
<!DOCTYPE svg PUBLIC "-//W3C//DTD SVG 1.1//EN" "http://www.w3.org/Graphics/SVG/1.1/DTD/svg11.dtd">
<!-- Creator: CorelDRAW 2021 (64-Bit) -->
<svg xmlns="http://www.w3.org/2000/svg" xml:space="preserve" width="226.991mm" height="83.3826mm" version="1.1" style="shape-rendering:geometricPrecision; text-rendering:geometricPrecision; image-rendering:optimizeQuality; fill-rule:evenodd; clip-rule:evenodd"
viewBox="0 0 23264 8545.76"
 xmlns:xlink="http://www.w3.org/1999/xlink"
 xmlns:xodm="http://www.corel.com/coreldraw/odm/2003">
 <defs>
  <style type="text/css">
   <![CDATA[
    .fil5 {fill:#FEFEFE;fill-rule:nonzero}
    .fil3 {fill:#E31E24;fill-rule:nonzero}
    .fil4 {fill:#144172;fill-rule:nonzero}
    .fil2 {fill:url(#id0)}
    .fil0 {fill:url(#id1)}
    .fil1 {fill:url(#id2)}
   ]]>
  </style>
  <linearGradient id="id0" gradientUnits="userSpaceOnUse" x1="2267.98" y1="9880.95" x2="5477.57" y2="-1229.53">
   <stop offset="0" style="stop-opacity:1; stop-color:#144172"/>
   <stop offset="1" style="stop-opacity:1; stop-color:#008DD2"/>
  </linearGradient>
  <linearGradient id="id1" gradientUnits="userSpaceOnUse" x1="6887.51" y1="9394.69" x2="6246.99" y2="996.02">
   <stop offset="0" style="stop-opacity:1; stop-color:#008DD2"/>
   <stop offset="0.0823529" style="stop-opacity:1; stop-color:#028ECD"/>
   <stop offset="0.101961" style="stop-opacity:1; stop-color:#0590C8"/>
   <stop offset="0.270588" style="stop-opacity:1; stop-color:#144172"/>
   <stop offset="0.45098" style="stop-opacity:1; stop-color:#0988BF"/>
   <stop offset="0.709804" style="stop-opacity:1; stop-color:#067AB2"/>
   <stop offset="1" style="stop-opacity:1; stop-color:#144172"/>
  </linearGradient>
  <linearGradient id="id2" gradientUnits="userSpaceOnUse" x1="616.89" y1="5600.17" x2="7627.7" y2="7293.9">
   <stop offset="0" style="stop-opacity:1; stop-color:#E31E24"/>
   <stop offset="0.0705882" style="stop-opacity:1; stop-color:#E03224"/>
   <stop offset="0.180392" style="stop-opacity:1; stop-color:#E73767"/>
   <stop offset="0.290196" style="stop-opacity:1; stop-color:#8E2425"/>
   <stop offset="0.501961" style="stop-opacity:1; stop-color:#9F2420"/>
   <stop offset="0.588235" style="stop-opacity:1; stop-color:#E73767"/>
   <stop offset="0.690196" style="stop-opacity:1; stop-color:#E13224"/>
   <stop offset="1" style="stop-opacity:1; stop-color:#E31E24"/>
  </linearGradient>
 </defs>
 <g id="Слой_x0020_1">
  <metadata id="CorelCorpID_0Corel-Layer"/>
  <g id="_1783405005024">
   <path class="fil0" d="M8893.72 8545.76l-2241.97 0 -2084.35 -7721.83 523.52 -823.93 143.11 0c810.25,0 1493.93,526.17 1705.15,1308.37l1954.53 7237.39z"/>
   <path class="fil1" d="M-0 7293.83l495.42 -1848.88 1012.58 0c155.67,0 296.82,24.19 444.74,76.95 886.27,316.09 1983.76,230.01 2872.64,-25.39 47.48,-13.66 111.67,-24.41 179.88,-32.44 107.96,-12.66 218.39,-19.12 327.21,-19.12 1558.09,0 15878.07,0 17436.11,0l495.42 1848.88 -18439.85 0c-66.85,0 -134.38,3.39 -200.91,8.35 -93.75,6.99 -202.43,17.11 -293.23,43.2 -888.73,255.41 -1987.56,341.03 -2872.71,25.39 -147.59,-52.64 -288.67,-76.94 -444.72,-76.94l-1012.58 0z"/>
   <path class="fil2" d="M5162.46 3044.82l0 -0.07 -1466 5485.41 -2241.97 0 1931.27 -7221.79c209.31,-782.7 894.9,-1308.37 1705.15,-1308.37l143.11 0c652.35,0 1223.65,340.86 1530.91,882.24 -612.61,344.13 -1163.18,986.34 -1602.49,2162.51l0 0.07z"/>
   <path class="fil3" d="M11376.87 8492.24l283.26 0 0 -993.4 -283.26 0 0 387.45 -364.16 0 0 -387.45 -283.21 0 0 993.4 283.21 0 0 -412.97 364.16 0 0 412.97zm1493.85 -1010.43c-296.12,0 -487.43,166.06 -487.43,398.77l0 229.94c0,232.74 191.31,398.78 487.43,398.78 296.11,0 487.41,-166.04 487.41,-398.78l0 -229.94c0,-232.71 -191.31,-398.77 -487.41,-398.77zm0 834.46c-128.71,0 -204.14,-75.24 -204.14,-225.65l0 -190.19c0,-150.38 75.43,-225.62 204.14,-225.62 128.75,0 204.15,75.24 204.15,225.62l0 190.19c0,150.41 -75.4,225.65 -204.15,225.65zm1210.53 175.97l836.88 0 0 -193.04 -553.64 0 0 -800.36 -283.24 0 0 993.4zm1495.64 0l432.16 0c296.15,0 485.63,-146.18 485.63,-383.15l0 -227.09c0,-236.97 -189.48,-383.15 -485.63,-383.15l-432.16 0 0 993.4zm634.54 -403.08c0,149.08 -73.57,210.04 -205.97,210.04l-145.35 0 0 -607.36 145.35 0c132.4,0 205.97,61.04 205.97,210.02l0 187.3zm1302.53 -590.32l-283.24 0 0 993.4 283.24 0 0 -993.4zm1508.47 993.4l248.34 0 0 -993.4 -283.21 0 0 591.78 -452.45 -591.78 -248.31 0 0 993.4 283.21 0 0 -591.81 452.41 591.81zm1254.76 -590.37c0,-147.57 69.87,-227.05 207.85,-227.05 112.25,0 178.39,58.2 200.49,170.29l281.32 -26.97c-36.68,-207.18 -216.96,-336.33 -485.51,-336.33 -296.07,0 -487.36,166.06 -487.36,400.19l0 228.53c0,234.18 191.29,398.78 489.21,398.78 310.89,0 487.38,-167.45 487.38,-405.93l0 -150.41 -492.92 0 0 170.29 207.88 0 0 5.71c0,112.06 -71.73,188.73 -204.19,188.73 -130.56,0 -204.15,-79.46 -204.15,-227.08l0 -188.75z"/>
   <path class="fil4" d="M11818.58 5198.09l-549.31 0 -605.77 -1788.78c-3.9,-18.8 -16.86,-28.51 -40.24,-28.51 -21.39,0 -36.96,9.72 -47.35,28.51l-592.74 1788.78 -556.48 0c31.13,-110.26 99.26,-330.14 204.3,-658.28 104.39,-328.85 205.57,-639.49 304.83,-932.67 110.25,-325.55 177.05,-507.16 201.06,-544.13 46.02,-64.89 112.13,-114.15 199.72,-148.55 87.57,-34.34 182.25,-51.2 284.72,-51.2 103.13,0 197.81,16.86 284.09,51.2 86.91,34.4 153.06,83.66 199.1,148.55 27.9,38.25 96.01,217.92 204.94,540.26 66.8,197.79 167.31,509.13 300.29,932.59 81.07,257.52 150.43,478.03 208.83,662.23zm1654.53 1.28l-1155.66 -459.28 0 455.74 -400.36 0 0 -610.18c0,-146.81 35.95,-265.32 108.32,-355.65 84.15,-105.22 207.85,-158.09 371.02,-158.09l497.3 0c46.17,0 81.59,-15.39 106.73,-46.67 25.13,-31.33 37.44,-68.24 37.44,-110.36 0,-45.66 -11.78,-83.66 -35.9,-114.45 -27.2,-34.37 -63.1,-51.84 -108.27,-51.84l-976.64 0 0 -387.95 1044.9 0c156.5,0 280.19,57.47 371.53,172.45 82.07,103.67 123.16,230.93 123.16,381.79 0,149.84 -41.09,276.6 -123.16,380.28 -91.34,116 -215.03,173.94 -371.53,173.94l-252.49 0 763.61 294.08 0 436.18zm1288.62 -1450.78l-415.66 0 0 1450.32 -400.31 0 0 -1450.32 -412.61 0 0 -387.95 1228.58 0 0 387.95zm2575.71 0l-977.65 0c-44.11,0 -79.03,16.43 -104.69,49.8 -25.64,32.83 -38.47,71.83 -38.47,116.49 0,43.11 12.33,80.6 36.97,110.86 24.61,30.78 60.01,46.17 106.2,46.17l576.33 0c155.5,0 278.69,58.5 368.46,175.02 81.6,105.17 122.16,234.52 122.16,388.48 0,152.9 -40.55,282.25 -121.6,388.48 -90.32,116.5 -213.51,175.02 -368.51,175.02l-1048.43 0 0 -388.03 981.2 0c42.11,0 75.45,-17.94 99.58,-53.34 24.11,-35.4 35.91,-75.96 35.91,-122.14 0,-46.17 -11.3,-85.72 -34.4,-118.03 -23.1,-32.36 -56.96,-48.28 -101.09,-48.28l-576.79 0c-156.57,0 -280.21,-57.44 -371.55,-172.41 -82.12,-102.65 -123.18,-229.89 -123.18,-381.82 0,-149.86 41.06,-276.62 123.18,-380.28 92.34,-115.93 216.04,-173.95 371.55,-173.95l1044.83 0 0 387.95zm1367.15 1450.32l-599.4 0c-215.53,0 -385.42,-93.92 -509.63,-281.25 -112.32,-168.35 -168.33,-376.17 -168.33,-623.03 0,-250.43 56.98,-463.92 171.47,-640.47 126.2,-195.51 295.05,-293.53 506.49,-293.53l599.4 0c211.42,0 380.28,98.02 506.51,293.53 114.44,176.55 171.4,390.54 171.4,642 0,246.88 -55.43,454.19 -166.77,621.5 -124.2,187.33 -294.6,281.25 -511.14,281.25zm-67.23 -397.21c95.97,0 173.43,-56.48 231.43,-168.88 52.86,-102.13 79.56,-225.81 79.56,-370.5 0,-140.64 -25.66,-258.67 -76.44,-354.11 -57.52,-106.23 -135.52,-159.63 -234.56,-159.63l-464.95 0c-99.08,0 -177.08,53.4 -234.54,159.63 -50.77,95.44 -76.44,213.46 -76.44,354.11 0,145.76 26.17,269.43 77.97,370.5 58.5,112.4 135.99,168.88 233.01,168.88l464.95 0zm2203.49 -332.6l-934.88 0 0 729.81 -406.42 0 0 -934.02c0,-172.43 16.9,-319.74 51.3,-440.84 41.04,-144.72 106.23,-255.53 195.55,-332.58 101.07,-87.26 235.04,-130.84 401.27,-130.84l900.16 0 0 387.95 -899.6 0c-101.09,0 -171.96,53.92 -211.96,161.69 -13.33,35.38 -23.07,89.27 -30.3,161.63l934.88 0 0 386.42 0 10.77zm1544.35 -720.51l-415.68 0 0 1450.32 -400.26 0 0 -1450.32 -412.64 0 0 -387.95 1228.58 0 0 387.95z"/>
   <path class="fil5" d="M15445.32 6278c0,-174.67 77.9,-265.75 218.73,-265.75 107.66,0 183.9,68.67 202.04,195.58l215.35 -28.41c-33.03,-207.48 -193.73,-341.83 -425.67,-341.83 -258.46,0 -427.44,173.15 -427.44,416.48l0 247.81c0,243.36 168.98,416.51 427.44,416.51 231.93,0 392.63,-134.33 425.67,-341.83l-215.35 -28.38c-18.14,126.88 -94.37,195.55 -202.04,195.55 -140.83,0 -218.73,-91.03 -218.73,-265.7l0 -200.03zm860.76 622.48l733.84 0 0 -174.67 -516.81 0 0 -870.34 -217.03 0 0 1045.01zm1322.9 -156.76c-142.51,0 -202.14,-98.5 -202.14,-295.57l0 -592.69 -217.01 0 0 658.39c0,244.81 155.67,404.53 419.15,404.53 263.39,0 419.09,-159.72 419.09,-404.53l0 -658.39 -217.04 0 0 592.69c0,197.06 -59.61,295.57 -202.05,295.57zm1476.92 -141.76c0,-161.28 -101.04,-270.27 -339.56,-307.57l-96.14 -14.91c-114.25,-17.95 -164,-64.19 -164,-138.86 0,-68.7 54.7,-128.38 164,-128.38 106.02,0 170.64,56.74 193.82,147.8l213.76 -29.87c-41.46,-183.6 -195.5,-292.59 -409.22,-292.59 -245.14,0 -379.37,144.78 -379.37,304.54 0,168.68 111.01,270.2 328.02,304.58l96.08 14.89c120.96,19.4 175.57,70.17 175.57,146.31 0,74.65 -66.25,135.82 -182.21,135.82 -117.57,0 -200.46,-58.2 -233.54,-170.16l-215.38 28.4c54.68,202.98 225.27,316.42 448.92,316.42 246.83,0 399.25,-132.81 399.25,-316.42zm115.24 -571.8l308.17 0 0 870.32 216.99 0 0 -870.32 308.12 0 0 -174.69 -833.28 0 0 174.69zm1014.81 870.32l733.87 0 0 -173.16 -516.8 0 0 -277.65 448.92 0 0 -173.17 -448.92 0 0 -247.82 516.8 0 0 -173.21 -733.87 0 0 1045.01zm1587.98 0l233.57 0 -263.44 -423.96c119.32,-43.28 213.77,-138.81 213.77,-297.1 0,-225.39 -193.82,-323.95 -379.37,-323.95l-425.78 0 0 1045.01 217.04 0 0 -397.09 160.7 0 243.5 397.09zm-404.2 -571.76l0 -298.56 182.19 0c109.37,0 188.86,43.3 188.86,149.25 0,104.55 -79.49,149.31 -188.86,149.31l-182.19 0z"/>
  </g>
 </g>
</svg>
